<svg id="eEI16T9ncf71" xmlns="http://www.w3.org/2000/svg" xmlns:xlink="http://www.w3.org/1999/xlink" viewBox="0 0 850.53801 740.82953" shape-rendering="geometricPrecision" text-rendering="geometricPrecision">
<style><![CDATA[
#eEI16T9ncf72 {animation: eEI16T9ncf72_c_o 3000ms linear infinite normal forwards}@keyframes eEI16T9ncf72_c_o { 0% {opacity: 0.07} 50% {opacity: 0.18} 100% {opacity: 0.06}} #eEI16T9ncf755_tr {animation: eEI16T9ncf755_tr__tr 3000ms linear infinite normal forwards}@keyframes eEI16T9ncf755_tr__tr { 0% {transform: translate(283.367378px,159.553047px) rotate(0deg)} 23.333333% {transform: translate(283.367378px,159.553047px) rotate(3.187745deg)} 43.333333% {transform: translate(283.367378px,159.553047px) rotate(0deg)} 66.666667% {transform: translate(283.367378px,159.553047px) rotate(12.494751deg)} 100% {transform: translate(283.367378px,159.553047px) rotate(0deg)}} #eEI16T9ncf772_tr {animation: eEI16T9ncf772_tr__tr 3000ms linear infinite normal forwards}@keyframes eEI16T9ncf772_tr__tr { 0% {transform: translate(174.150139px,434.966415px) rotate(0deg)} 16.666667% {transform: translate(174.150139px,434.966415px) rotate(-1.721077deg)} 30% {transform: translate(174.150139px,434.966415px) rotate(0deg)} 46.666667% {transform: translate(174.150139px,434.966415px) rotate(-4.507043deg)} 63.333333% {transform: translate(174.150139px,434.966415px) rotate(1.276386deg)} 83.333333% {transform: translate(174.150139px,434.966415px) rotate(-2.780513deg)} 100% {transform: translate(174.150139px,434.966415px) rotate(0deg)}} #eEI16T9ncf775_tr {animation: eEI16T9ncf775_tr__tr 3000ms linear infinite normal forwards}@keyframes eEI16T9ncf775_tr__tr { 0% {transform: translate(423.383026px,427.106399px) rotate(0deg)} 16.666667% {transform: translate(423.383026px,427.106399px) rotate(-4.663774deg)} 33.333333% {transform: translate(423.383026px,427.106399px) rotate(0deg)} 50% {transform: translate(423.383026px,427.106399px) rotate(-3.710162deg)} 66.666667% {transform: translate(423.383026px,427.106399px) rotate(0deg)} 83.333333% {transform: translate(423.383026px,427.106399px) rotate(-2.834462deg)} 100% {transform: translate(423.383026px,427.106399px) rotate(0deg)}} #eEI16T9ncf782_ts {animation: eEI16T9ncf782_ts__ts 3000ms linear infinite normal forwards}@keyframes eEI16T9ncf782_ts__ts { 0% {transform: translate(285.902924px,348.70372px) scale(1,1)} 33.333333% {transform: translate(285.902924px,348.70372px) scale(1.05,1.05)} 66.666667% {transform: translate(285.902924px,348.70372px) scale(0.95,0.95)} 100% {transform: translate(285.902924px,348.70372px) scale(1,1)}}
]]></style>
<path id="eEI16T9ncf72" d="M941.609,465.12478c.110923,91.669793-35.321858,179.812645-98.85,245.9q-5.74494,6.015-11.8,11.74-9.225,8.775-19.07,16.87c-61.397605,50.584386-138.046218,79.009685-217.58,80.69q-3.97494.09-7.98.09c-63.43,0-143.21-33.87994-215.61-80.78q-8.985-5.82-17.81-11.91-4.125-2.82-8.21-5.72c-27.923717-19.717338-54.428863-41.370559-79.32-64.8-16.297138-15.294887-31.579561-31.636224-45.75-48.92-55.63-68.62006-67.9-130.45,11.41-143.16q14.085-2.25,27.34-4.81q19.20008-3.69,36.75-7.97q23.64-5.745,44.42005-12.46q6.99-2.25,13.66-4.59c65.74-23.09,109.74-53.19995,139.69-85.87q7.62-8.295,14.05-16.79c6.558504-8.620223,12.515915-17.681636,17.83-27.12c7.334577-13.113973,13.495233-26.850797,18.41-41.05l.27-.78c23.83-68.74,16.58-132.5,42.87-153.84c112.38-91.23,252.29,38.69,317.96,191.9q4.965,11.58,9.34,23.3q1.965,5.23507,3.79,10.49q4.79992,13.69491,8.71,27.46q1.5,5.25,2.86005,10.49c.97,3.77,1.9,7.53,2.76,11.29c6.3899,27.53,9.8599,54.68002,9.8599,80.35Z" transform="translate(-174.731-79.5852)" opacity="0.07" fill="#2bd984"/><path d="M594.309,820.3248q-3.97494.09-7.98.09c-63.43,0-143.21-33.87994-215.61-80.78q-8.985-5.82-17.81-11.91l5.16-31.4l156.21-20.74l78.4,59.95Z" transform="translate(-174.731-79.5852)" fill="#2f2e41"/><path d="M601.82894,259.63486h-22.26c-1.435595.000635-2.599215,1.164255-2.59985,2.59985v22.27c.000674.68842.275115,1.348307.762816,1.834178s1.148616.757827,1.837034.755912h22.26c1.432304.000516,2.595091-1.157795,2.6001-2.59009v-22.27c-.004262-1.434186-1.165914-2.595726-2.6001-2.59985Z" transform="translate(-174.731-79.5852)" fill="#fff"/><path d="M601.82894,297.58481h-22.26c-1.435642.000662-2.599271,1.164358-2.59985,2.6v22.27c.000669.688413.275111,1.348295.762816,1.834152s1.148623.757792,1.837034.755848h22.26c1.432294.000576,2.595102-1.157715,2.6001-2.59v-22.27c-.004191-1.43424-1.16586-2.595864-2.6001-2.6Z" transform="translate(-174.731-79.5852)" fill="#e6e6e6"/><path d="M601.82894,335.53476h-22.26c-1.435656.000723-2.599265,1.164444-2.59985,2.6001v22.26c-.001387.689947.27208,1.352035.759947,1.839903s1.149956.761334,1.839903.759947h22.26c1.435656-.000585,2.599377-1.164194,2.6001-2.59985v-22.26c-.004196-1.434254-1.165846-2.595904-2.6001-2.6001Z" transform="translate(-174.731-79.5852)" fill="#e6e6e6"/><path d="M604.389,375.62485c-.228987-1.235421-1.303613-2.133779-2.56006-2.14014h-22.26c-1.435637.000767-2.599221,1.164463-2.59985,2.6001v22.26c-.0014.689965.272058,1.352076.759923,1.83997s1.149962.76139,1.839927.76003h22.26c1.435691-.00064,2.599405-1.164309,2.6001-2.6v-22.26c.002029-.154272-.011384-.308359-.04004-.45996Z" transform="translate(-174.731-79.5852)" fill="#e6e6e6"/><path d="M602.839,411.63486c-.320226-.132486-.663449-.200478-1.01-.20008h-22.26c-.689964-.001358-1.352058.272139-1.839924.760033s-.761323,1.150003-.759926,1.839967v22.26c-.003139.690503.269757,1.353636.757998,1.841925s1.151348.761247,1.841852.758175h22.26c1.435705-.000701,2.599399-1.164395,2.6001-2.6001v-22.26c-.002545-1.045936-.627918-1.989805-1.5901-2.39992Z" transform="translate(-174.731-79.5852)" fill="#e6e6e6"/><path d="M648.589,259.63486h-22.26c-1.435595.000635-2.599215,1.164255-2.59985,2.59985v22.27c.000674.68842.275115,1.348307.762816,1.834178s1.148616.757827,1.837034.755912h22.26c1.432304.000516,2.595091-1.157795,2.6001-2.59009v-22.27c-.004262-1.434186-1.165914-2.595726-2.6001-2.59985Z" transform="translate(-174.731-79.5852)" fill="#e6e6e6"/><path d="M648.589,297.58481h-22.26c-1.435642.000662-2.599271,1.164358-2.59985,2.6v22.27c.000669.688413.275111,1.348295.762816,1.834152s1.148623.757792,1.837034.755848h22.26c1.432294.000576,2.595102-1.157715,2.6001-2.59v-22.27c-.004191-1.43424-1.16586-2.595864-2.6001-2.6Z" transform="translate(-174.731-79.5852)" fill="#2bd984"/><path d="M648.589,335.53476h-22.26c-1.435656.000723-2.599265,1.164444-2.59985,2.6001v22.26c-.001387.689947.27208,1.352035.759947,1.839903s1.149956.761334,1.839903.759947h22.26c1.435656-.000585,2.599377-1.164194,2.6001-2.59985v-22.26c-.004196-1.434254-1.165846-2.595904-2.6001-2.6001Z" transform="translate(-174.731-79.5852)" fill="#2bd984"/><path d="M648.589,373.48471h-22.26c-1.118023.000849-2.109575.718313-2.46,1.78-.092502.263522-.139798.540784-.13989.82007v22.26c-.0014.689965.272058,1.352076.759923,1.83997s1.149962.76139,1.839927.76003h22.26c1.435691-.00064,2.599405-1.164309,2.6001-2.6v-22.26c-.004256-1.434209-1.165851-2.595809-2.60006-2.60007Z" transform="translate(-174.731-79.5852)" fill="#2bd984"/><path d="M648.589,411.43478h-22.26c-.689964-.001358-1.352058.272139-1.839924.760033s-.761323,1.150003-.759926,1.839967v22.26c-.001397.689973.272058,1.352093.75992,1.840003s1.149956.761428,1.83993.760097h22.26c1.435705-.000701,2.599399-1.164395,2.6001-2.6001v-22.26c-.000701-1.435689-1.164411-2.599354-2.6001-2.6Z" transform="translate(-174.731-79.5852)" fill="#e6e6e6"/><path d="M695.349,259.63486h-22.26c-1.435595.000635-2.599215,1.164255-2.59985,2.59985v22.27c.000674.68842.275115,1.348307.762816,1.834178s1.148616.757827,1.837034.755912h22.26c1.432304.000516,2.595091-1.157795,2.6001-2.59009v-22.27c-.004262-1.434186-1.165914-2.595726-2.6001-2.59985Z" transform="translate(-174.731-79.5852)" fill="#2bd984"/><path d="M695.349,297.58481h-22.26c-1.435642.000662-2.599271,1.164358-2.59985,2.6v22.27c.000669.688413.275111,1.348295.762816,1.834152s1.148623.757792,1.837034.755848h22.26c1.432294.000576,2.595102-1.157715,2.6001-2.59v-22.27c-.004191-1.43424-1.16586-2.595864-2.6001-2.6Z" transform="translate(-174.731-79.5852)" fill="#2bd984"/><path d="M695.349,335.53476h-22.26c-1.435656.000723-2.599265,1.164444-2.59985,2.6001v22.26c-.001387.689947.27208,1.352035.759947,1.839903s1.149956.761334,1.839903.759947h22.26c1.435656-.000585,2.599377-1.164194,2.6001-2.59985v-22.26c-.004196-1.434254-1.165846-2.595904-2.6001-2.6001Z" transform="translate(-174.731-79.5852)" fill="#e6e6e6"/><path d="M695.349,373.48471h-22.26c-1.435637.000767-2.599221,1.164463-2.59985,2.6001v22.26c-.0014.689965.272058,1.352076.759923,1.83997s1.149962.76139,1.839927.76003h22.26c1.435691-.00064,2.599405-1.164309,2.6001-2.6v-22.26c-.00424-1.434236-1.165864-2.59586-2.6001-2.6001Z" transform="translate(-174.731-79.5852)" fill="#2bd984"/><path d="M695.349,411.43478h-22.26c-.689964-.001358-1.352058.272139-1.839924.760033s-.761323,1.150003-.759926,1.839967v22.26c-.001397.689973.272058,1.352093.75992,1.840003s1.149956.761428,1.83993.760097h22.26c1.435705-.000701,2.599399-1.164395,2.6001-2.6001v-22.26c-.000701-1.435689-1.164411-2.599354-2.6001-2.6Z" transform="translate(-174.731-79.5852)" fill="#2bd984"/><path d="M742.109,259.63486h-22.26c-1.435623.000623-2.599294,1.164227-2.6,2.59985v22.27c.000704.688437.275174,1.34833.762901,1.834199s1.148664.757816,1.837099.755891h22.26c1.432304.000516,2.595091-1.157795,2.6001-2.59009v-22.27c-.004262-1.434186-1.165914-2.595726-2.6001-2.59985Z" transform="translate(-174.731-79.5852)" fill="#2bd984"/><path d="M742.109,297.58481h-22.26c-1.435675.00064-2.59936,1.164325-2.6,2.6v22.27c.000698.68843.27517,1.348317.762901,1.834173s1.148671.757782,1.837099.755827h22.26c1.432294.000576,2.595102-1.157715,2.6001-2.59v-22.27c-.004191-1.43424-1.16586-2.595864-2.6001-2.6Z" transform="translate(-174.731-79.5852)" fill="#fff"/><path d="M742.109,335.53476h-22.26c-1.435691.000695-2.59936,1.164409-2.6,2.6001v22.26c-.00136.689965.272136,1.352061.76003,1.839927s1.150005.761323,1.83997.759923h22.26c1.435656-.000585,2.599377-1.164194,2.6001-2.59985v-22.26c-.004196-1.434254-1.165846-2.595904-2.6001-2.6001Z" transform="translate(-174.731-79.5852)" fill="#fff"/><path d="M742.109,373.48471h-22.26c-1.435673.000739-2.599316,1.164427-2.6,2.6001v22.26c-.001371.689982.272117,1.352099.760009,1.839991s1.150009.76138,1.839991.760009h22.26c1.435691-.00064,2.599405-1.164309,2.6001-2.6v-22.26c-.00424-1.434236-1.165864-2.59586-2.6001-2.6001Z" transform="translate(-174.731-79.5852)" fill="#e6e6e6"/><path d="M742.109,411.43478h-22.26c-.689982-.001371-1.352099.272117-1.839991.760009s-.76138,1.150009-.760009,1.839991v22.26c-.001357.689987.272131,1.352107.760018,1.840012s1.149995.761419,1.839982.760088h22.26c1.435705-.000701,2.599399-1.164395,2.6001-2.6001v-22.26c-.000701-1.435689-1.164411-2.599354-2.6001-2.6Z" transform="translate(-174.731-79.5852)" fill="#2bd984"/><path d="M788.869,259.63486h-22.27c-1.432204.004959-2.590477,1.167638-2.59,2.59985v22.27c.000276,1.430318,1.159682,2.589764,2.59,2.59009h22.27c1.432304.000516,2.595091-1.157795,2.6001-2.59009v-22.27c-.004262-1.434186-1.165914-2.595726-2.6001-2.59985Z" transform="translate(-174.731-79.5852)" fill="#fff"/><path d="M788.869,297.58481h-22.27c-1.432262.00496-2.59056,1.167729-2.59,2.6v22.27c.000265,1.430308,1.159692,2.589735,2.59,2.59h22.27c1.432294.000576,2.595102-1.157715,2.6001-2.59v-22.27c-.004191-1.43424-1.16586-2.595864-2.6001-2.6Z" transform="translate(-174.731-79.5852)" fill="#fff"/><path d="M788.869,335.53476h-22.27c-1.432267.005042-2.590532,1.167824-2.59,2.6001v22.26c-.001923.688404.270019,1.34931.755872,1.837011s1.145721.762149,1.834128.762839h22.27c1.435656-.000585,2.599377-1.164194,2.6001-2.59985v-22.26c-.004196-1.434254-1.165846-2.595904-2.6001-2.6001Z" transform="translate(-174.731-79.5852)" fill="#fff"/><path d="M788.869,373.48471h-22.27c-1.432249.005086-2.590488,1.167842-2.59,2.6001v22.26c-.001936.688422.269997,1.349351.755848,1.837078s1.145727.762205,1.834152.762922h22.27c1.435691-.00064,2.599405-1.164309,2.6001-2.6v-22.26c-.00424-1.434236-1.165864-2.59586-2.6001-2.6001Z" transform="translate(-174.731-79.5852)" fill="#2bd984"/><path d="M788.869,411.43478h-22.27c-.688424.00072-1.348299.275198-1.834149.762925s-.757784,1.148653-.755851,1.837075v22.26c-.001933.688431.269997,1.349369.755845,1.837111s1.145722.762243,1.834155.762989h22.27c1.435705-.000701,2.599399-1.164395,2.6001-2.6001v-22.26c-.000701-1.435689-1.164411-2.599354-2.6001-2.6Z" transform="translate(-174.731-79.5852)" fill="#e6e6e6"/><path d="M835.629,259.63486h-22.27c-1.432204.004959-2.590477,1.167638-2.59,2.59985v22.27c.000276,1.430318,1.159682,2.589764,2.59,2.59009h22.27c1.432284.000466,2.595042-1.157815,2.6001-2.59009v-22.27c-.004306-1.434168-1.165932-2.595682-2.6001-2.59985Z" transform="translate(-174.731-79.5852)" fill="#fff"/><path d="M835.629,297.58481h-22.27c-1.432262.00496-2.59056,1.167729-2.59,2.6v22.27c.000265,1.430308,1.159692,2.589735,2.59,2.59h22.27c1.432274.000527,2.595052-1.157735,2.6001-2.59v-22.27c-.00424-1.434219-1.16588-2.595815-2.6001-2.6Z" transform="translate(-174.731-79.5852)" fill="#fff"/><path d="M835.629,335.53476h-22.27c-1.432267.005042-2.590532,1.167824-2.59,2.6001v22.26c-.001923.688404.270019,1.34931.755872,1.837011s1.145721.762149,1.834128.762839h22.27c1.435637-.000629,2.599333-1.164213,2.6001-2.59985v-22.26c-.00424-1.434236-1.165864-2.59586-2.6001-2.6001Z" transform="translate(-174.731-79.5852)" fill="#2bd984"/><path d="M835.629,373.48471h-22.27c-1.432249.005086-2.590488,1.167842-2.59,2.6001v22.26c-.001936.688422.269997,1.349351.755848,1.837078s1.145727.762205,1.834152.762922h22.27c1.435673-.000684,2.599361-1.164327,2.6001-2.6v-22.26c-.004289-1.434215-1.165885-2.595811-2.6001-2.6001Z" transform="translate(-174.731-79.5852)" fill="#e6e6e6"/><path d="M835.629,411.43478h-22.27c-.688424.00072-1.348299.275198-1.834149.762925s-.757784,1.148653-.755851,1.837075v22.26c-.001933.688431.269997,1.349369.755845,1.837111s1.145722.762243,1.834155.762989h22.27c1.435685-.00075,2.59935-1.164415,2.6001-2.6001v-22.26c-.000745-1.435671-1.164429-2.59931-2.6001-2.6Z" transform="translate(-174.731-79.5852)" fill="#fff"/><path d="M882.389,259.63486h-22.27c-1.432204.004959-2.590477,1.167638-2.59,2.59985v22.27c.000276,1.430318,1.159682,2.589764,2.59,2.59009h22.27c1.432284.000466,2.595042-1.157815,2.6001-2.59009v-22.27c-.004306-1.434168-1.165932-2.595682-2.6001-2.59985Z" transform="translate(-174.731-79.5852)" fill="#2bd984"/><path d="M882.389,297.58481h-22.27c-1.432262.00496-2.59056,1.167729-2.59,2.6v22.27c.000265,1.430308,1.159692,2.589735,2.59,2.59h22.27c1.432274.000527,2.595052-1.157735,2.6001-2.59v-22.27c-.00424-1.434219-1.16588-2.595815-2.6001-2.6Z" transform="translate(-174.731-79.5852)" fill="#2bd984"/><path d="M882.389,335.53476h-22.27c-1.432267.005042-2.590532,1.167824-2.59,2.6001v22.26c-.001923.688404.270019,1.34931.755872,1.837011s1.145721.762149,1.834128.762839h22.27c1.435637-.000629,2.599333-1.164213,2.6001-2.59985v-22.26c-.00424-1.434236-1.165864-2.59586-2.6001-2.6001Z" transform="translate(-174.731-79.5852)" fill="#e6e6e6"/><path d="M882.389,373.48471h-22.27c-1.432249.005086-2.590488,1.167842-2.59,2.6001v22.26c-.001936.688422.269997,1.349351.755848,1.837078s1.145727.762205,1.834152.762922h22.27c1.435673-.000684,2.599361-1.164327,2.6001-2.6v-22.26c-.004289-1.434215-1.165885-2.595811-2.6001-2.6001Z" transform="translate(-174.731-79.5852)" fill="#fff"/><path d="M882.389,411.43478h-22.27c-.688424.00072-1.348299.275198-1.834149.762925s-.757784,1.148653-.755851,1.837075v22.26c-.001933.688431.269997,1.349369.755845,1.837111s1.145722.762243,1.834155.762989h22.27c1.435685-.00075,2.59935-1.164415,2.6001-2.6001v-22.26c-.000745-1.435671-1.164429-2.59931-2.6001-2.6Z" transform="translate(-174.731-79.5852)" fill="#2bd984"/><path d="M929.149,259.63486h-22.27c-1.432204.004959-2.590477,1.167638-2.59,2.59985v22.27c.000276,1.430318,1.159682,2.589764,2.59,2.59009h22.27c1.43227.000472,2.595002-1.157829,2.6-2.59009v-22.27c-.004251-1.434152-1.165848-2.595682-2.6-2.59985Z" transform="translate(-174.731-79.5852)" fill="#2bd984"/><path d="M929.149,297.58481h-22.27c-1.432262.00496-2.59056,1.167729-2.59,2.6v22.27c.000265,1.430308,1.159692,2.589735,2.59,2.59h22.27c1.432257.000527,2.595007-1.157751,2.6-2.59v-22.27c-.004179-1.434206-1.165794-2.595821-2.6-2.6Z" transform="translate(-174.731-79.5852)" fill="#2bd984"/><path d="M929.149,335.53476h-22.27c-1.432267.005042-2.590532,1.167824-2.59,2.6001v22.26c-.001923.688404.270019,1.34931.755872,1.837011s1.145721.762149,1.834128.762839h22.27c1.435621-.000629,2.599288-1.164229,2.6-2.59985v-22.26c-.004185-1.43422-1.165781-2.59586-2.6-2.6001Z" transform="translate(-174.731-79.5852)" fill="#e6e6e6"/><path d="M929.149,373.48471h-22.27c-1.432249.005086-2.590488,1.167842-2.59,2.6001v22.26c-.001936.688422.269997,1.349351.755848,1.837078s1.145727.762205,1.834152.762922h22.27c1.435657-.000684,2.599316-1.164343,2.6-2.6v-22.26c-.004228-1.434201-1.165799-2.595816-2.6-2.6001Z" transform="translate(-174.731-79.5852)" fill="#2bd984"/><path d="M929.149,411.43478h-22.27c-.688424.00072-1.348299.275198-1.834149.762925s-.757784,1.148653-.755851,1.837075v22.26c-.001933.688431.269997,1.349369.755845,1.837111s1.145722.762243,1.834155.762989h22.27c1.435671-.000745,2.59931-1.164429,2.6-2.6001v-22.26c-.00069-1.435655-1.164345-2.59931-2.6-2.6Z" transform="translate(-174.731-79.5852)" fill="#2bd984"/><path d="M975.909,259.63486h-22.27c-1.432204.004959-2.590477,1.167638-2.59,2.59985v22.27c.000276,1.430318,1.159682,2.589764,2.59,2.59009h22.27c1.43227.000472,2.595002-1.157829,2.6-2.59009v-22.27c-.004251-1.434152-1.165848-2.595682-2.6-2.59985Z" transform="translate(-174.731-79.5852)" fill="#e6e6e6"/><path d="M975.909,297.58481h-22.27c-1.432262.00496-2.59056,1.167729-2.59,2.6v22.27c.000265,1.430308,1.159692,2.589735,2.59,2.59h22.27c1.432257.000527,2.595007-1.157751,2.6-2.59v-22.27c-.004179-1.434206-1.165794-2.595821-2.6-2.6Z" transform="translate(-174.731-79.5852)" fill="#2bd984"/><path d="M975.909,335.53476h-22.27c-1.432267.005042-2.590532,1.167824-2.59,2.6001v22.26c-.001923.688404.270019,1.34931.755872,1.837011s1.145721.762149,1.834128.762839h22.27c1.435621-.000629,2.599288-1.164229,2.6-2.59985v-22.26c-.004185-1.43422-1.165781-2.59586-2.6-2.6001Z" transform="translate(-174.731-79.5852)" fill="#2bd984"/><path d="M975.909,373.48471h-22.27c-1.432249.005086-2.590488,1.167842-2.59,2.6001v22.26c-.001936.688422.269997,1.349351.755848,1.837078s1.145727.762205,1.834152.762922h22.27c1.435657-.000684,2.599316-1.164343,2.6-2.6v-22.26c-.004228-1.434201-1.165799-2.595816-2.6-2.6001Z" transform="translate(-174.731-79.5852)" fill="#2bd984"/><path d="M975.909,411.43478h-22.27c-.688424.00072-1.348299.275198-1.834149.762925s-.757784,1.148653-.755851,1.837075v22.26c-.001933.688431.269997,1.349369.755845,1.837111s1.145722.762243,1.834155.762989h22.27c1.435671-.000745,2.59931-1.164429,2.6-2.6001v-22.26c-.00069-1.435655-1.164345-2.59931-2.6-2.6Z" transform="translate(-174.731-79.5852)" fill="#e6e6e6"/><path d="M1022.669,259.63486h-22.27c-1.432209.004981-2.590495,1.167632-2.59009,2.59985v22.27c.000337,1.430328,1.159762,2.589753,2.59009,2.59009h22.27c1.43227.000472,2.595002-1.157829,2.6-2.59009v-22.27c-.004251-1.434152-1.165848-2.595682-2.6-2.59985Z" transform="translate(-174.731-79.5852)" fill="#e6e6e6"/><path d="M1022.669,297.58481h-22.27c-1.432261.004998-2.590562,1.16773-2.59009,2.6v22.27c.000326,1.430318,1.159772,2.589724,2.59009,2.59h22.27c1.432257.000527,2.595007-1.157751,2.6-2.59v-22.27c-.004179-1.434206-1.165794-2.595821-2.6-2.6Z" transform="translate(-174.731-79.5852)" fill="#e6e6e6"/><path d="M1022.669,335.53476h-22.27c-1.432277.005053-2.590562,1.167814-2.59009,2.6001v22.26c-.001893.688411.27007,1.349314.755936,1.83701s1.145741.762144,1.834154.76284h22.27c1.435621-.000629,2.599288-1.164229,2.6-2.59985v-22.26c-.004185-1.43422-1.165781-2.59586-2.6-2.6001Z" transform="translate(-174.731-79.5852)" fill="#2bd984"/><path d="M1022.669,373.48471h-22.27c-1.432259.005097-2.590518,1.167832-2.59009,2.6001v22.26c-.001907.688429.270048,1.349355.755912,1.837078s1.145747.7622,1.834178.762922h22.27c1.435657-.000684,2.599316-1.164343,2.6-2.6v-22.26c-.004228-1.434201-1.165799-2.595816-2.6-2.6001Z" transform="translate(-174.731-80.827161)" fill="#e6e6e6"/><path d="M1022.669,411.43478h-22.27c-.68843.000725-1.348311.275202-1.834175.762925s-.757819,1.148647-.755915,1.837075v22.26c-.001904.688437.270048,1.349372.755909,1.83711s1.145741.762239,1.834181.76299h22.27c1.435671-.000745,2.59931-1.164429,2.6-2.6001v-22.26c-.00069-1.435655-1.164345-2.59931-2.6-2.6Z" transform="translate(-174.731-79.5852)" fill="#e6e6e6"/><polygon points="336.095,660.051 335.475,660.051 336.005,659.981 336.095,660.051" fill="#2f2e41"/><g id="eEI16T9ncf755_tr" transform="translate(283.367378,159.553047) rotate(0)"><g transform="translate(-283.367378,-159.553047)"><circle r="68.3219" transform="translate(282.814 176.733)" fill="#ffb6b6"/><path d="M517.37694,206.2256c0,0,17.8694-34.16091-21.44383-37.26649c0,0-33.51489-30.40228-67.6758-5.558c0,0-18.63322,0-28.82254,21.08567c0,0-14.655-5.558-17.87551,9.31661c0,0-10.72349,31.05546,0,59.00533s14.28537,31.05537,14.28537,31.05537-17.6209-58.59838,25.26991-61.704s90.8867-29.90942,94.46114,4.25144s8.95329,42.57784,8.95329,42.57784s33.94958-48.78877-7.15203-62.76377Z" transform="translate(-174.731-79.5852)" fill="#2f2e41"/><path d="M540.399,252.58481h-5c0-37.8-37.41-62.57-75.15-62.59-5.489362-.016049-10.966585.516598-16.35,1.59-6.06,1.21-12.35,2.66-18.53,4.55-24.37,7.47-46.97,21.91-46.97,56.45-.005203,6.707909.848402,13.388885,2.54,19.88l-4.84,1.26c-1.795214-6.903197-2.702536-14.007194-2.7-21.14c0-30.18,12.39-50.91,33.79-63.27c11.25-6.5,24.98-10.69,40.71-12.73c6.545822-.870838,13.163387-1.071878,19.75-.6c43.4,3.11996,72.75,36.39998,72.75,76.6Z" transform="translate(-174.731-79.5852)" fill="#2bd984"/><path d="M548.729,255.35477l-1.97-14.56c-.485922-3.676974-2.257095-7.063456-5-9.56-3.567843-3.297699-8.453393-4.772582-13.25-4l-3.13.43c-1.729982.227702-3.296663,1.138898-4.35,2.53-1.06227,1.386333-1.526685,3.139591-1.29,4.87l4.55,33.54c.384508,2.803478,2.519069,5.046781,5.3,5.57.40166.080503.810353.120702,1.22.12.294354-.000048.588364-.020094.88-.06l3.5-.47c4.312916-.572313,8.198633-2.898678,10.74-6.43.27-.38.53-.77.77-1.17005c1.874283-3.272049,2.589538-7.080853,2.03-10.80995Z" transform="translate(-174.731-79.5852)" fill="#2bd984"/><path d="M523.359,228.27481c-.918007.446062-1.716676,1.104193-2.33,1.92-1.06227,1.386333-1.526685,3.139591-1.29,4.87l4.55,33.54c.384508,2.803478,2.519069,5.046781,5.3,5.57Z" transform="translate(-174.731-79.5852)" fill="#fff"/><path d="M548.729,255.35477l-1.97-14.56c-.485922-3.676974-2.257095-7.063456-5-9.56l4.53,33.37c.067882.535688.205724,1.060159.41,1.56c1.874294-3.272064,2.58955-7.080887,2.03-10.81Z" transform="translate(-174.731-79.5852)" fill="#3f3d56"/><ellipse rx="2.5" ry="7" transform="matrix(.990923-.134427 0.134427 0.990923 357.486695 179.323798)" fill="#3f3d56"/><ellipse rx="2.5" ry="7" transform="matrix(.990923-.134427 0.134427 0.990923 354.487237 161.323806)" fill="#3f3d56"/><ellipse rx="2.5" ry="7" transform="matrix(.990923-.134427 0.134427 0.990923 373.486773 168.323806)" fill="#3f3d56"/><path d="M460.249,189.99478c-5.489362-.016049-10.966585.516598-16.35,1.59-6.06,1.21-12.35,2.66-18.53,4.55-9.65-.47-16.75-2.97-18.18-6.82c11.25-6.5,24.98-10.69,40.71-12.73c6.545822-.870838,13.163387-1.071878,19.75-.6c1.410326.826754,2.400106,2.216813,2.72,3.82.47,3.48004-3.5,7.17999-10.12,10.19Z" transform="translate(-174.731-79.5852)" fill="#3f3d56"/><path d="M396.409,287.28482l-7.7-32.01c-.561435-2.361316-2.485214-4.155003-4.88-4.55-.33088-.051496-.665141-.078237-1-.08-.471712.001673-.941596.058731-1.4.17l-2.98.72c-7.988919,1.932134-12.905645,9.967111-10.99,17.96l3.45,14.36c.787725,3.380711,2.663833,6.409202,5.34,8.62005.433687.35003.887823.673936,1.36.97c3.386451,2.12243,7.486984,2.786017,11.37,1.84l2.97-.72c.785306-.18324,1.524154-.527128,2.17-1.01c1.964308-1.432165,2.868926-3.909023,2.29-6.27005Z" transform="translate(-174.731-79.5852)" fill="#2bd984"/><ellipse rx="2.5" ry="7" transform="matrix(.972245-.233963 0.233963 0.972245 203.897588 194.937823)" fill="#3f3d56"/><ellipse rx="2.5" ry="7" transform="matrix(.972245-.233963 0.233963 0.972245 193.898023 197.93779)" fill="#3f3d56"/><path d="M396.899,287.16476l-7.7-32.01c-.613379-2.554645-2.697658-4.493143-5.29-4.92l10.51,43.72c2.122525-1.554448,3.101026-4.233489,2.48-6.79Z" transform="translate(-174.731-79.5852)" fill="#fff"/><path d="M369.199,263.15481c-.212504-.890164-.611266-1.725179-1.17-2.45-1.082409,2.803211-1.28131,5.870473-.57,8.79l3.45,14.36c.787725,3.380711,2.663833,6.409202,5.34,8.62005Z" transform="translate(-174.731-79.5852)" fill="#3f3d56"/></g></g><path d="M634.279,424.69479l-.2201,1.16-2.47,13.04-17.06994,90.2-1.01,5.31006-2.12,11.23-2.8999,15.31994-6.43018,33.95008-1.83984,9.73-.69006,3.6499-.24,1.28-1.91,10.07007-.58,3.03991-4.66,34.53-4.07007,30.09l13.62012,13.62-8.12012,8.12-5.32983,30.53.00989.07007h-217.52989q-13.20008-8.55012-26.02-17.63013l1.79-13.3999c0,0,6.15991-23.93006,3.56982-26.79-2.57983-2.86-8.24-7.97-8.24-7.97l7.13013-16.64.99-2.30993-1.66-34.43006-.03992-.83-.55-11.3501-.07007-1.46-.11-2.18994-2.11-43.68006-.04-.72009-.63989-13.24-.6001-12.58984-.26-5.31006-2.56994-53.13-1.74-36.07995-1.52-31.41l6.11-2.06994l65.3501-22.21009l27.06982-35.19006l56.34009.42l27.58008.21009l46.0199,42.67993l10.47009,5l.08.04l7.50988,3.59l19.04,9.09l20.13013,9.62012l10.32983,4.92993Z" transform="translate(-174.731-79.5852)" fill="#cacaca"/><g id="eEI16T9ncf772_tr" transform="translate(174.150139,434.966415) rotate(0)"><g transform="translate(-174.150139,-434.966415)"><path d="M443.83985,637.13612c-8.357686,3.237832-17.72027,2.607421-25.568457-1.7216s-13.37579-11.911963-15.095433-20.7084L296.61714,599.5882l37.0428-41.902l95.511,20.7803c15.304994-1.952427,29.651431,7.851035,33.393879,22.819298s-4.302038,30.370027-18.724969,35.850342Z" transform="translate(-174.731-79.5852)" fill="#ffb6b6"/><path d="M396.32894,560.9548c-1.973862-2.502414-4.768189-4.2272-7.88989-4.87l-43.72-9.09009-4.49-.92993c-5.27759-1.10141-9.835307-4.400573-12.53009-9.07007-1.382068-2.423527-2.218213-5.119636-2.45-7.8999-.208391-2.527796.09429-5.071676.89-7.48l15.15-45.65l9.82995-29.62c1.191356-3.572345,1.894416-7.289323,2.09009-11.05.547671-10.407157-2.672272-20.663285-9.07007-28.88989-11.548416-14.846247-31.452278-20.385758-49.01-13.64014-.25.09009-.51.19006-.76.29-12.433632,4.964712-21.808487,15.48781-25.31,28.41l-10.68,38.85-22.03,80.09009c-4.462697,16.238165-1.617292,33.615296,7.791297,47.582118s24.443522,23.132618,41.168703,25.097812l62.97,7.38l29.14,3.42c6.987694.839689,13.447631-3.831141,14.84-10.73.04715-.181097.083877-.364748.11-.55005l.7-4.32007l5.93006-36.37988.05993-.37012c.624812-3.753903-.366835-7.596975-2.72998-10.57988Z" transform="translate(-174.731-79.5852)" fill="#cacaca"/></g></g><g id="eEI16T9ncf775_tr" transform="translate(423.383026,427.106399) rotate(0)"><g transform="translate(-423.383026,-427.106399)"><path d="M511.71356,638.30236c8.730758,2.026873,17.91087.082461,25.070154-5.310033s11.562319-13.67914,12.024336-22.630167l103.362-29.99367-42.58155-36.25956-91.62614,34.04148c-15.427474.225254-28.248214,11.953901-29.842465,27.300434s8.541916,29.460024,23.593665,32.851566Z" transform="translate(-174.731-79.5852)" fill="#ffb6b6"/><path d="M703.4891,513.27475L654.32894,400.13486c-4.020896-9.28876-11.202298-16.852828-20.27-21.3501-2.802797-1.379872-5.746525-2.452769-8.7799-3.2-.4701-.12-.94007-.23-1.41-.32007-6.432282-1.403611-13.103989-1.280277-19.48.36011-11.787623,3.028223-21.729416,10.930021-27.34,21.73-.030373.044411-.057126.091191-.08.13989-6.284152,12.156885-6.421518,26.575696-.37012,38.8501l.61011,1.22l34.74,69.77c2.399301,4.82558,2.624549,10.445889.619116,15.448s-6.050802,8.910256-11.119116,10.74194l-2.44006.88013-43.88,15.84985c-6.843491,2.442002-10.525506,9.863493-8.33,16.79l.11.3501l12.3,39.35986c.05994.18005.11987.36011.18994.54.108131.339631.241848.670579.4.99c2.700713,6.056814,9.405225,9.250058,15.80993,7.53l23.68006-6.25l4.82995-1.28l61.15-16.1499c16.28243-4.302533,29.876108-15.497198,37.221168-30.652376s7.70988-32.761299.998922-48.207734Z" transform="translate(-174.731-79.5852)" fill="#cacaca"/></g></g><path d="M219.629,608.28482c14.170439,17.283776,29.452862,33.625113,45.75,48.92h451.97c9.066504.014263,16.411257,7.363489,16.42,16.43l.65,114.53c27.80464-12.77455,53.843284-29.086095,77.47-48.53q9.84-8.085,19.07-16.87q6.045-5.73,11.8-11.74c28.76381-29.964915,52.055861-64.737151,68.82-102.74Z" transform="translate(-174.731-79.5852)" fill="#3f3d56"/><path d="M842.759,711.02475q-5.74494,6.015-11.79993,11.74h-96.21007v-11.74Z" transform="translate(-174.731-79.5852)" fill="#fff"/><path d="M633.379,335.53476c-.968144-1.78711-2.837497-2.900239-4.87-2.8999h-327.84c-3.060212.007993-5.537482,2.489698-5.54,5.54992v196.2201h338.92992v-196.2201c.00525-.92714-.228947-1.839934-.67992-2.65002Z" transform="translate(-174.731-79.5852)" fill="#3f3d56"/><path d="M294.83213,529.09239v24.21381c-.000021,2.027283.805298,3.971541,2.238794,5.405056s3.377743,2.238859,5.405026,2.238864h125.09671v47.78659h-1.66185c-.263354-.000027-.515931.104573-.702158.290785s-.290847.438781-.290842.702135v3.32374c-.000027.263368.104584.515957.290814.702186s.438818.290841.702186.290814h77.6584c.263367.000024.515955-.104588.702183-.290817s.290841-.438816.290817-.702183v-3.32374c.000005-.263354-.104615-.515923-.290842-.702135s-.438804-.290812-.702158-.290785h-1.66185v-47.78659h125.09671c2.027283-.000005,3.97153-.805349,5.405026-2.238864s2.238815-3.377773,2.238794-5.405056v-24.21381Z" transform="translate(-174.731-79.5852)" fill="#3f3d56"/><g id="eEI16T9ncf782_ts" transform="translate(285.902924,348.70372) scale(1,1)"><circle r="31.3064" transform="translate(0.000076,0.00028)" fill="#2bd984"/></g></svg>
